<svg width="200" height="20" viewBox="0 0 200 20" fill="none" xmlns="http://www.w3.org/2000/svg">
<path d="M112.612 19.0354C111.882 19.0354 111.268 18.7887 110.77 18.2954C110.272 17.802 110.022 17.1853 110.022 16.4452C110.022 15.6875 110.272 15.0751 110.77 14.6082C111.268 14.1413 111.882 13.9078 112.612 13.9078C113.341 13.9078 113.955 14.1413 114.454 14.6082C114.952 15.0751 115.201 15.6875 115.201 16.4452C115.201 17.1853 114.952 17.802 114.454 18.2954C113.955 18.7887 113.341 19.0354 112.612 19.0354Z" fill="#469ED7"/>
<path d="M156.743 0.3221L148.789 14.965C148.024 16.3747 147.103 17.4407 146.027 18.1632C144.95 18.8857 143.78 19.2469 142.517 19.2469C141.538 19.2469 140.524 19.0354 139.474 18.6125L140.515 15.3615C141.262 15.5906 141.885 15.7051 142.383 15.7051C142.917 15.7051 143.398 15.5774 143.825 15.3218C144.252 15.0664 144.643 14.6654 144.999 14.1192L145.159 13.9078L137.793 0.3221H142.41L147.375 10.2602L152.499 0.3221H156.743Z" fill="#469ED7"/>
<path d="M127.911 0.3221C129.566 0.3221 131.003 0.595255 132.222 1.14149C133.441 1.68773 134.379 2.46303 135.038 3.46747C135.696 4.47185 136.025 5.66127 136.025 7.03567C136.025 8.39246 135.696 9.57746 135.038 10.5907C134.379 11.6038 133.441 12.3792 132.222 12.9166C131.003 13.4541 129.566 13.7228 127.911 13.7228H124.148V18.824H119.824V0.3221H127.911ZM127.671 10.2338C128.97 10.2338 129.957 9.95634 130.634 9.40126C131.31 8.84617 131.648 8.05767 131.648 7.03567C131.648 5.99606 131.31 5.19871 130.634 4.64363C129.957 4.08855 128.97 3.81104 127.671 3.81104H124.148V10.2338H127.671Z" fill="#469ED7"/>
<path d="M91.6533 6.40134C93.9309 6.40134 95.6791 6.90349 96.898 7.90786C98.1168 8.9123 98.7263 10.4012 98.7263 12.3748C98.7263 14.4716 98.0546 16.0707 96.7112 17.172C95.3677 18.2733 93.4771 18.824 91.0394 18.824H82.6052V0.3221H86.9023V6.40134H91.6533ZM90.7992 15.6522C91.9202 15.6522 92.7965 15.3791 93.4282 14.8329C94.0599 14.2866 94.3758 13.4936 94.3758 12.454C94.3758 10.5334 93.1835 9.57303 90.7992 9.57303H86.9023V15.6522H90.7992ZM101.102 0.3221H105.399V18.824H101.102V0.3221Z" fill="#469ED7"/>
<path d="M49.2031 0.3221C50.8579 0.3221 52.2948 0.595255 53.5137 1.14149C54.7325 1.68773 55.6711 2.46303 56.3295 3.46747C56.9879 4.47185 57.317 5.66127 57.317 7.03567C57.317 8.39246 56.9879 9.57746 56.3295 10.5907C55.6711 11.6038 54.7325 12.3792 53.5137 12.9166C52.2948 13.4541 50.8579 13.7228 49.2031 13.7228H45.4398V18.824H41.1159V0.3221H49.2031ZM48.9629 10.2338C50.2619 10.2338 51.2494 9.95634 51.9255 9.40126C52.6017 8.84617 52.9398 8.05767 52.9398 7.03567C52.9398 5.99606 52.6017 5.19871 51.9255 4.64363C51.2494 4.08855 50.2619 3.81104 48.9629 3.81104H45.4398V10.2338H48.9629Z" fill="#469ED7"/>
<path d="M37.6663 0.3221L29.7126 14.965C28.9474 16.3747 28.0266 17.4407 26.9501 18.1632C25.8736 18.8857 24.7036 19.2469 23.4403 19.2469C22.4616 19.2469 21.4474 19.0354 20.3975 18.6125L21.4385 15.3615C22.1858 15.5906 22.8086 15.7051 23.3068 15.7051C23.8407 15.7051 24.3211 15.5774 24.7481 15.3218C25.1752 15.0664 25.5666 14.6654 25.9225 14.1192L26.0826 13.9078L18.7161 0.3221H23.3335L28.298 10.2602L33.4226 0.3221H37.6663Z" fill="#469ED7"/>
<path d="M7.28653 11.3704H4.29716V18.824H0V0.322102H4.29716V7.80214H7.39329L12.3044 0.322102H16.8684L10.7563 9.25587L17.0553 18.824H12.1442L7.28653 11.3704Z" fill="#469ED7"/>
<path d="M70.6684 19.1411C68.7645 19.1411 67.0429 18.7314 65.5037 17.9121C63.9646 17.0927 62.7546 15.9562 61.8739 14.5024C60.9931 13.0488 60.5527 11.4056 60.5527 9.57302C60.5527 7.74048 60.9931 6.09735 61.8739 4.64361C62.7546 3.18988 63.9646 2.05339 65.5037 1.234C67.0429 0.414609 68.7734 0.00491275 70.6951 0.00491275C72.3143 0.00491275 73.7778 0.286841 75.0857 0.850771C76.3935 1.41463 77.4923 2.22518 78.382 3.28241L75.6062 5.81984C74.3428 4.37488 72.777 3.65244 70.9086 3.65244C69.752 3.65244 68.72 3.90355 67.8125 4.40577C66.905 4.90792 66.1978 5.60833 65.6906 6.50705C65.1835 7.40569 64.93 8.42768 64.93 9.57302C64.93 10.7184 65.1835 11.7404 65.6906 12.6391C66.1978 13.5377 66.905 14.2381 67.8125 14.7403C68.72 15.2426 69.752 15.4936 70.9086 15.4936C72.777 15.4936 74.3428 14.7624 75.6062 13.2998L78.382 15.8372C77.4923 16.9121 76.3891 17.7315 75.0723 18.2953C73.7556 18.8592 72.2876 19.1411 70.6684 19.1411Z" fill="#469ED7"/>
<path d="M169.496 0.0962592H165.731C164.8 0.0962592 164.045 0.843639 164.045 1.76557V17.1245C164.045 18.0464 164.8 18.7938 165.731 18.7938H169.496C170.427 18.7938 171.181 18.0464 171.181 17.1245V1.76557C171.181 0.843639 170.427 0.0962592 169.496 0.0962592Z" fill="#469ED7"/>
<path d="M180.239 0.0962521H176.474C175.543 0.0962521 174.788 0.843632 174.788 1.76557V17.1245C174.788 18.0464 175.543 18.7938 176.474 18.7938H180.239C181.17 18.7938 181.924 18.0464 181.924 17.1245V1.76557C181.924 0.843632 181.17 0.0962521 180.239 0.0962521Z" fill="#469ED7"/>
<path d="M189.524 0.234859L186.288 2.14078C185.488 2.61209 185.225 3.63653 185.701 4.42895L193.629 17.63C194.105 18.4225 195.139 18.6828 195.94 18.2115L199.176 16.3055C199.976 15.8342 200.239 14.8098 199.763 14.0174L191.835 0.816279C191.359 0.023865 190.324 -0.236445 189.524 0.234859Z" fill="#469ED7"/>
</svg>
